<?xml version="1.0" encoding="utf-8"?>
<svg version="1.2" baseProfile="tiny" xmlns="http://www.w3.org/2000/svg" xmlns:xlink="http://www.w3.org/1999/xlink" x="0px" y="0px" viewBox="0 0 256 256" xml:space="preserve">
<path fill="#675A5D" d="M73.396,235.708c-4.869,0.002-9.213-1.211-12.968-3.648c-25.561-16.602-6.183-79.88,27.317-131.467c31.223-48.079,69.38-81.036,94.946-82.006c5.346-0.205,10.101,0.997,14.068,3.573c11.101,7.207,14.506,23.551,9.849,47.263c-0.508,2.59-3.029,4.269-5.607,3.767c-2.59-0.508-4.277-3.019-3.767-5.608c3.734-19.007,1.664-32.642-5.676-37.409c-2.282-1.48-5.124-2.154-8.503-2.04c-21.898,0.831-58.611,33.494-87.296,77.664c-17.219,26.513-29.622,53.807-34.924,76.85c-4.87,21.166-3.122,36.256,4.798,41.399c7.453,4.839,20.968,1.028,37.081-10.453c2.148-1.532,5.132-1.032,6.663,1.118c1.531,2.15,1.03,5.132-1.119,6.664C94.903,230.891,83.106,235.708,73.396,235.708z"/>
<path fill="#675A5D" d="M220.493,164.462c-1.915,0-3.721-1.159-4.456-3.051c-0.954-2.459,0.267-5.227,2.726-6.182c15.637-6.066,24.844-14.109,25.262-22.069c0.493-9.432-10.683-19.717-30.662-28.219c-21.756-9.256-51.121-15.265-82.69-16.919c-6.329-0.331-12.415-0.481-18.065-0.471c-61.159,0.205-98.59,17.199-99.444,33.51c-0.422,8.042,7.653,16.751,22.735,24.523c2.346,1.209,3.267,4.09,2.058,6.436c-1.208,2.342-4.091,3.264-6.434,2.058c-18.892-9.735-28.54-21.325-27.901-33.517c1.302-24.85,46.105-42.353,108.953-42.564c5.834-0.014,12.092,0.143,18.598,0.484c32.657,1.711,63.174,7.986,85.93,17.669c24.241,10.313,37.19,23.635,36.462,37.509c-0.64,12.232-11.48,22.769-31.345,30.477C221.652,164.357,221.066,164.462,220.493,164.462z"/>
<path fill="#675A5D" d="M175.179,241.003c-11.026,0-24.443-6.975-38.899-20.427c-18.116-16.859-36.269-42.19-51.114-71.324C70.324,120.121,60.505,90.539,57.52,65.953c-3.179-26.175,1.888-44.065,14.269-50.373c2.549-1.3,5.369-2.073,8.38-2.299c9.895-0.734,22.003,4.589,35.054,15.419c2.03,1.684,2.311,4.696,0.626,6.726c-1.683,2.032-4.696,2.31-6.726,0.626c-10.951-9.086-20.986-13.8-28.24-13.243c-1.765,0.132-3.321,0.551-4.756,1.283c-8.419,4.29-11.745,19.127-9.124,40.71c2.854,23.502,12.328,51.953,26.676,80.113c14.35,28.164,31.791,52.549,49.11,68.667c15.906,14.801,29.852,20.828,38.274,16.544c8.031-4.092,11.455-18.007,9.393-38.175c-2.241-21.935-10.64-48.902-23.652-75.937c-1.144-2.377-0.144-5.231,2.234-6.376c2.379-1.143,5.23-0.145,6.376,2.234c13.478,28.007,22.196,56.101,24.547,79.107c2.521,24.665-2.652,41.591-14.562,47.66C182.294,240.221,178.87,241.003,175.179,241.003z"/>
<path fill="#675A5D" d="M143.701,128.812c0,7.915-6.416,14.331-14.331,14.331s-14.331-6.416-14.331-14.331l0,0c0-7.915,6.416-14.331,14.331-14.331S143.701,120.897,143.701,128.812z"/>
</svg>
