<?xml version="1.0" encoding="utf-8"?>
<svg version="1.2" baseProfile="tiny" xmlns="http://www.w3.org/2000/svg" xmlns:xlink="http://www.w3.org/1999/xlink" x="0px" y="0px" viewBox="0 0 840 840" xml:space="preserve">
<path fill="#47848F" d="M781.919,622.692c0-27.757-22.502-50.253-50.253-50.253c-27.757,0-50.253,22.502-50.253,50.253s22.502,50.253,50.253,50.253C759.418,672.95,781.919,650.449,781.919,622.692L781.919,622.692z M760.919,622.692c0,16.159-13.099,29.253-29.253,29.253c-16.159,0-29.253-13.099-29.253-29.253s13.099-29.253,29.253-29.253S760.919,606.538,760.919,622.692L760.919,622.692z"/>
<path fill="#47848F" d="M109.321,672.95c27.757,0,50.253-22.502,50.253-50.253s-22.501-50.253-50.253-50.253s-50.253,22.502-50.253,50.253S81.564,672.95,109.321,672.95L109.321,672.95z M109.321,651.95c-16.16,0-29.253-13.099-29.253-29.253s13.099-29.253,29.253-29.253s29.253,13.099,29.253,29.253S125.48,651.95,109.321,651.95L109.321,651.95z"/>
<path fill="#47848F" d="M420.856,127.223c27.757,0,50.253-22.501,50.253-50.253s-22.502-50.253-50.253-50.253c-27.751,0-50.253,22.501-50.253,50.253S393.099,127.223,420.856,127.223L420.856,127.223z M420.856,106.223c-16.16,0-29.253-13.099-29.253-29.253s13.099-29.253,29.253-29.253c16.16,0,29.253,13.099,29.253,29.253S437.01,106.223,420.856,106.223L420.856,106.223z"/>
<path fill="#47848F" d="M428.531,473.917c-19.63,4.242-38.965-8.232-43.218-27.862c-4.232-19.63,8.232-38.965,27.862-43.218c19.63-4.242,38.965,8.232,43.218,27.862C460.635,450.329,448.161,469.665,428.531,473.917z"/>
<path fill="#47848F" d="M512.369,198.628c-60.622,12.988-125.15,38.383-187.115,74.162C171.916,361.315,71.894,491.857,85.785,586.509c0.284,1.943,1.118,3.654,2.273,5.077c5.36-3.67,11.718-5.959,18.58-6.442c0.011-0.557,0.005-1.113-0.074-1.68c-12.332-84.042,82.477-207.779,229.189-292.483c60.118-34.708,122.593-59.299,181.015-71.815c5.67-1.213,9.282-6.799,8.069-12.469C523.625,201.028,518.039,197.411,512.369,198.628z"/>
<path fill="#47848F" d="M742.938,252.425c-23.693-41.039-73.784-62.706-140.354-63.572c-5.796-0.074-10.558,4.562-10.637,10.363c-0.073,5.796,4.562,10.558,10.364,10.637c59.871,0.777,103.021,19.446,122.44,53.072c26.749,46.326,5.869,117.369-56.096,190.575c-3.748,4.426-3.197,11.051,1.229,14.8c4.426,3.748,11.051,3.197,14.8-1.229C751.727,387.859,775.136,308.196,742.938,252.425z"/>
<path fill="#47848F" d="M116.65,262.39c26.807-46.426,99.02-63.84,193.678-46.599c5.707,1.04,11.172-2.746,12.211-8.447c1.04-5.707-2.746-11.172-8.447-12.212c-102.396-18.648-183.356,0.872-215.623,56.758c-24.076,41.706-17.194,96.999,16.69,156.103c2.882,5.03,9.303,6.773,14.332,3.885c5.029-2.882,6.773-9.303,3.885-14.333C102.848,344.306,96.91,296.583,116.65,262.39z"/>
<path fill="#47848F" d="M698.759,641.051c-0.352,0.184-0.714,0.341-1.05,0.572c-69.746,47.56-219.959,25.783-362.266-56.375c-59.509-34.361-111.599-75.684-151.505-119.542c-3.901-4.289-10.542-4.604-14.831-0.698c-4.289,3.906-4.604,10.542-0.698,14.831c41.402,45.502,95.193,88.174,156.539,123.595c148.538,85.759,306.663,108.68,384.594,55.54c1.428-0.971,2.499-2.258,3.266-3.675C706.939,651.893,702.072,646.973,698.759,641.051z"/>
<path fill="#47848F" d="M541.742,707.369c-4.972-2.987-11.419-1.381-14.411,3.591c-30.497,50.726-67.951,78.325-106.48,78.325c-53.571,0-104.722-53.755-137.125-144.233c-1.953-5.46-7.964-8.3-13.424-6.347c-5.46,1.953-8.3,7.964-6.347,13.424c35.054,97.886,92.405,158.156,156.896,158.156c47.035,0,90.547-32.062,124.477-88.504C548.32,716.809,546.714,710.357,541.742,707.369z"/>
<path fill="#47848F" d="M464.457,75.962c-1.958-0.866-4.032-1.082-6.001-0.751c0.026,0.588,0.089,1.165,0.089,1.759c0,6.232-1.538,12.096-4.216,17.272c0.504,0.341,1.029,0.656,1.601,0.913c77.343,34.346,135.124,176.657,135.124,343.224c0,67.63-9.439,132.421-26.938,188.333c-1.733,5.534,1.349,11.424,6.883,13.156c5.534,1.732,11.424-1.349,13.156-6.883c18.149-57.991,27.893-124.892,27.893-194.607C612.055,264.422,551.177,114.466,464.457,75.962z"/>
</svg>
