<?xml version="1.0" encoding="utf-8"?>
<svg version="1.2" baseProfile="tiny" xmlns="http://www.w3.org/2000/svg" xmlns:xlink="http://www.w3.org/1999/xlink" x="0px" y="0px" viewBox="0 0 256 256" xml:space="preserve">
<path fill="#3EB5E8" d="M201.273,252.893h-73.179c-24.389,0-48.791,0.24-73.178,0c-24.759-0.244-46.538-18.068-50.923-42.612c-1.572-8.801-0.805-18.314-0.805-27.209V83.156c0-9.312-0.066-18.627,0-27.939C3.343,33.499,16.6,13.664,37.19,6.154c10.204-3.722,20.831-3.118,31.471-3.118h46.169c28.267,0,56.532-0.037,84.799,0c19.133,0.025,36.914,9.211,46.564,26.069C252.642,40.373,253,52.232,253,64.691v96.643v36.271c0,16.869-5.547,32.57-18.923,43.555C224.875,248.718,213.179,252.893,201.273,252.893"/>
<path fill="#FFFFFF" d="M48.278,64.663v129.402h35.478l-0.163-41.71l16.431-19.926l20.089,61.636h38.032l-31.165-86.323l31.246-43.243h-44.633l-30,35.396V64.581L48.278,64.663"/>
<path fill="#FFFFFF" d="M213.077,64.581h-48.122l27.762,42.126l-26.726,87.358h47.086V64.581"/>
</svg>
