<svg width="1024" height="1024" viewBox="0 0 1024 1024" xmlns="http://www.w3.org/2000/svg" xmlns:xlink="http://www.w3.org/1999/xlink">
<defs><linearGradient x1="50%" y1="80%" x2="50%" y2="10%" id="b"><stop stop-color="#BFBFBF" offset="0%"/><stop stop-color="#FAFAFA" offset="100%"/></linearGradient><linearGradient x1="50%" y1="0%" x2="50%" y2="5%" id="d"><stop stop-color="#FFF" offset="0%"/><stop stop-color="#FFF" stop-opacity="0" offset="100%"/></linearGradient><filter x="-50%" y="-50%" width="200%" height="200%" filterUnits="objectBoundingBox" id="a"><feOffset in="SourceAlpha" result="shadowOffsetInner1"/><feGaussianBlur stdDeviation="15" in="shadowOffsetInner1" result="shadowBlurInner1"/><feComposite in="shadowBlurInner1" in2="SourceAlpha" operator="arithmetic" k2="-1" k3="1" result="shadowInnerInner1"/><feColorMatrix values="0 0 0 0 0 0 0 0 0 0 0 0 0 0 0 0 0 0 0.028 0" in="shadowInnerInner1" result="shadowMatrixInner1"/><feOffset dy="1" in="SourceAlpha" result="shadowOffsetInner2"/><feGaussianBlur in="shadowOffsetInner2" result="shadowBlurInner2"/><feComposite in="shadowBlurInner2" in2="SourceAlpha" operator="arithmetic" k2="-1" k3="1" result="shadowInnerInner2"/><feColorMatrix values="0 0 0 0 1 0 0 0 0 1 0 0 0 0 1 0 0 0 0.7 0" in="shadowInnerInner2" result="shadowMatrixInner2"/><feMorphology radius="1" in="SourceAlpha" operator="dilate" result="shadowSpreadInner3"/><feOffset in="shadowSpreadInner3" result="shadowOffsetInner3"/><feGaussianBlur in="shadowOffsetInner3" result="shadowBlurInner3"/><feComposite in="shadowBlurInner3" in2="SourceAlpha" operator="arithmetic" k2="-1" k3="1" result="shadowInnerInner3"/><feColorMatrix values="0 0 0 0 1 0 0 0 0 1 0 0 0 0 1 0 0 0 0.28 0" in="shadowInnerInner3" result="shadowMatrixInner3"/><feMerge><feMergeNode in="SourceGraphic"/><feMergeNode in="shadowMatrixInner1"/><feMergeNode in="shadowMatrixInner2"/><feMergeNode in="shadowMatrixInner3"/></feMerge></filter><circle id="c" cx="512" cy="512" r="449"/><linearGradient x1="50%" y1="0%" x2="50%" y2="100%" id="e"><stop stop-color="#245F6B" offset="0%"/><stop stop-color="#004451" offset="100%"/></linearGradient><filter x="-50%" y="-50%" width="200%" height="200%" filterUnits="objectBoundingBox" id="f"><feMorphology radius="1" in="SourceAlpha" operator="dilate" result="shadowSpreadOuter1"/><feOffset in="shadowSpreadOuter1" result="shadowOffsetOuter1"/><feGaussianBlur stdDeviation="1" in="shadowOffsetOuter1" result="shadowBlurOuter1"/><feColorMatrix values="0 0 0 0 1 0 0 0 0 1 0 0 0 0 1 0 0 0 0.35 0" in="shadowBlurOuter1" result="shadowMatrixOuter1"/><feOffset in="SourceAlpha" result="shadowOffsetInner1"/><feGaussianBlur stdDeviation="1.5" in="shadowOffsetInner1" result="shadowBlurInner1"/><feComposite in="shadowBlurInner1" in2="SourceAlpha" operator="arithmetic" k2="-1" k3="1" result="shadowInnerInner1"/><feColorMatrix values="0 0 0 0 0 0 0 0 0 0 0 0 0 0 0 0 0 0 0.35 0" in="shadowInnerInner1" result="shadowMatrixInner1"/><feMerge><feMergeNode in="shadowMatrixOuter1"/><feMergeNode in="SourceGraphic"/><feMergeNode in="shadowMatrixInner1"/></feMerge></filter><linearGradient x1="50%" y1="0%" x2="50%" y2="100%" id="h"><stop stop-color="#FDFDFD" offset="0%"/><stop stop-color="#D2D2D2" offset="100%"/></linearGradient><filter x="-50%" y="-50%" width="200%" height="200%" filterUnits="objectBoundingBox" id="g"><feOffset dy="3" in="SourceAlpha" result="shadowOffsetOuter1"/><feGaussianBlur stdDeviation="1.5" in="shadowOffsetOuter1" result="shadowBlurOuter1"/><feColorMatrix values="0 0 0 0 0 0 0 0 0 0 0 0 0 0 0 0 0 0 0.105 0" in="shadowBlurOuter1" result="shadowMatrixOuter1"/><feOffset dy="-3" in="SourceAlpha" result="shadowOffsetInner1"/><feGaussianBlur stdDeviation="1.5" in="shadowOffsetInner1" result="shadowBlurInner1"/><feComposite in="shadowBlurInner1" in2="SourceAlpha" operator="arithmetic" k2="-1" k3="1" result="shadowInnerInner1"/><feColorMatrix values="0 0 0 0 0 0 0 0 0 0 0 0 0 0 0 0 0 0 0.105 0" in="shadowInnerInner1" result="shadowMatrixInner1"/><feOffset dy="3" in="SourceAlpha" result="shadowOffsetInner2"/><feGaussianBlur stdDeviation="1.5" in="shadowOffsetInner2" result="shadowBlurInner2"/><feComposite in="shadowBlurInner2" in2="SourceAlpha" operator="arithmetic" k2="-1" k3="1" result="shadowInnerInner2"/><feColorMatrix values="0 0 0 0 1 0 0 0 0 1 0 0 0 0 1 0 0 0 0.35 0" in="shadowInnerInner2" result="shadowMatrixInner2"/><feMorphology radius="1" in="SourceAlpha" operator="dilate" result="shadowSpreadInner3"/><feOffset in="shadowSpreadInner3" result="shadowOffsetInner3"/><feGaussianBlur in="shadowOffsetInner3" result="shadowBlurInner3"/><feComposite in="shadowBlurInner3" in2="SourceAlpha" operator="arithmetic" k2="-1" k3="1" result="shadowInnerInner3"/><feColorMatrix values="0 0 0 0 1 0 0 0 0 1 0 0 0 0 1 0 0 0 0.28 0" in="shadowInnerInner3" result="shadowMatrixInner3"/><feMerge><feMergeNode in="shadowMatrixOuter1"/><feMergeNode in="SourceGraphic"/><feMergeNode in="shadowMatrixInner1"/><feMergeNode in="shadowMatrixInner2"/><feMergeNode in="shadowMatrixInner3"/></feMerge></filter></defs>
<g fill="none" fill-rule="evenodd"><g filter="url(#a)"><use fill="url(#b)" xlink:href="#c"/><use fill="url(#d)" xlink:href="#c"/></g><circle cx="413" cy="413" r="413" transform="translate(99 99)" fill="url(#e)"/><circle fill="none" filter="url(#f)" cx="512" cy="512" r="413"/><path d="M480 260v-40c0-41.875-10.26-79.583-30.78-113.125-20.522-33.542-49.064-59.74-85.626-78.594C327.03 9.428 285.834 0 240 0c-45.833 0-87.03 9.427-123.594 28.28-36.562 18.855-65.104 45.053-85.625 78.595C10.26 140.417 0 178.125 0 220v40c0 5.417 1.98 10.104 5.938 14.063C9.896 278.02 14.582 280 20 280h120c5.417 0 10.104-1.98 14.063-5.938C158.02 270.104 160 265.418 160 260v-40c0-10.833 2.448-20.208 7.344-28.125 4.896-7.917 10.47-13.854 16.72-17.813 6.25-3.958 13.644-7.083 22.186-9.375 8.542-2.29 15.208-3.645 20-4.062 4.792-.417 9.375-.625 13.75-.625s8.958.208 13.75.625c4.792.417 11.458 1.77 20 4.063 8.542 2.29 15.938 5.416 22.188 9.375 6.25 3.958 11.822 9.895 16.718 17.812C317.552 199.792 320 209.167 320 220v40c0 5.417 1.98 10.104 5.938 14.063C329.896 278.02 334.582 280 340 280h120c5.417 0 10.104-1.98 14.063-5.938C478.02 270.104 480 265.418 480 260zM160 460V340c0-5.417-1.98-10.104-5.938-14.063C150.105 321.98 145.417 320 140 320H20c-5.417 0-10.104 1.98-14.063 5.938C1.98 329.896 0 334.582 0 340v120c0 5.417 1.98 10.104 5.938 14.063C9.896 478.02 14.582 480 20 480h120c5.417 0 10.104-1.98 14.063-5.938C158.02 470.104 160 465.418 160 460zm320 0V340c0-5.417-1.98-10.104-5.938-14.063C470.104 321.98 465.418 320 460 320H340c-5.417 0-10.104 1.98-14.063 5.938C321.98 329.896 320 334.582 320 340v120c0 5.417 1.98 10.104 5.938 14.063C329.896 478.02 334.582 480 340 480h120c5.417 0 10.104-1.98 14.063-5.938C478.02 470.104 480 465.418 480 460z" transform="translate(272 242)" filter="url(#g)" fill="url(#h)"/></g>
</svg>
