<?xml version="1.0" encoding="utf-8"?>
<svg version="1.2" baseProfile="tiny" xmlns="http://www.w3.org/2000/svg" xmlns:xlink="http://www.w3.org/1999/xlink" x="0px" y="0px" viewBox="0 0 256 256" xml:space="preserve">
<path fill="#7E4F90" d="M211.479,221.898c-11.29,11.291-39.012,3.252-70.693-18.058l52.771-52.431C214.76,183.002,222.744,210.633,211.479,221.898L211.479,221.898L211.479,221.898z M48.423,107.679C32.188,80.453,26.946,57.427,36.976,47.396c10.076-10.076,33.247-4.75,60.633,11.658L48.423,107.679L48.423,107.679z M202.603,142.422l15.235-15.136V2.943l-74.19,73.69c-1.5-1.267-3.001-2.507-4.503-3.726l15.235-15.015l-0.013-54.949l-47.75,47.205C72.572,30.163,42.171,24.647,27.991,38.827c-14.117,14.116-8.732,44.284,11.033,78.142l-11.073,10.947v124.35l58.254-57.798l-0.079-69.308l43.726-43.096c1.503,1.237,3.008,2.5,4.513,3.787l-42.349,42.065l-0.005,124.381l39.293-39.039c38.027,24.997,73.141,33.159,88.709,17.592C235.543,215.322,227.453,180.34,202.603,142.422L202.603,142.422L202.603,142.422z"/>
<path fill="#412A70" d="M27.918,128.236v124.668l58.403-57.946l-0.079-69.485l68.428-67.442l-0.013-55.089L27.918,128.236"/>
<path fill="#5B2B79" d="M91.729,252.943l0.005-124.702L217.879,2.943v124.664L91.729,252.943"/>
<path fill="#7E4F90" d="M131.304,213.154c38.028,24.997,73.142,33.159,88.709,17.592c21.941-21.941-3.258-82.712-56.284-135.738S49.932,16.783,27.991,38.724c-14.116,14.116-8.732,44.283,11.033,78.142l9.399-9.291C32.188,80.35,26.945,57.323,36.976,47.293c16.686-16.686,69.276,8.851,117.462,57.039c48.188,48.187,73.725,100.776,57.039,117.462c-11.29,11.291-39.012,3.252-70.693-18.058L131.304,213.154"/>
</svg>
