<?xml version="1.0" encoding="utf-8"?>
<svg version="1.2" baseProfile="tiny" xmlns="http://www.w3.org/2000/svg" xmlns:xlink="http://www.w3.org/1999/xlink" x="0px" y="0px" viewBox="0 0 256 256" xml:space="preserve">
<path fill="#E0A32D" d="M165.084,18.434c-3.8-11.698-16.364-18.1-28.06-14.297c-11.698,3.8-18.1,16.364-14.297,28.06l57.584,177.17c3.954,10.928,15.759,17.069,27.09,13.808c11.819-3.403,19.024-15.956,15.253-27.564C222.51,195.167,165.084,18.434,165.084,18.434"/>
<path fill="#3BB188" d="M75.86,47.425c-3.802-11.696-16.366-18.098-28.062-14.297c-11.698,3.8-18.1,16.364-14.297,28.062l57.584,177.17c3.954,10.928,15.759,17.069,27.09,13.806c11.819-3.401,19.024-15.954,15.253-27.564C133.284,224.16,75.86,47.425,75.86,47.425"/>
<path fill="#CE215C" d="M237.566,165.166c11.698-3.8,18.098-16.364,14.297-28.062c-3.8-11.696-16.364-18.098-28.06-14.297l-177.17,57.586c-10.928,3.952-17.069,15.757-13.808,27.088c3.403,11.819,15.956,19.024,27.564,15.253C60.833,222.59,237.566,165.166,237.566,165.166"/>
<path fill="#392538" d="M83.559,215.206c11.532-3.747,26.396-8.576,42.345-13.758c-3.747-11.532-8.576-26.398-13.76-42.349l-42.347,13.765L83.559,215.206"/>
<path fill="#BC262A" d="M172.786,186.214c16.009-5.2,30.889-10.036,42.345-13.758c-3.747-11.532-8.579-26.402-13.762-42.357l-42.347,13.765L172.786,186.214"/>
<path fill="#74C5CD" d="M208.575,75.94c11.696-3.8,18.098-16.364,14.297-28.062c-3.8-11.696-16.364-18.098-28.062-14.297L17.641,91.166C6.713,95.118,0.572,106.923,3.835,118.254c3.401,11.819,15.954,19.024,27.564,15.253C31.84,133.363,208.575,75.94,208.575,75.94"/>
<path fill="#278D74" d="M54.56,125.982c11.532-3.747,26.4-8.578,42.351-13.76c-5.2-16.011-10.036-30.891-13.758-42.349L40.796,83.639L54.56,125.982"/>
<path fill="#63813A" d="M143.785,96.991c16.013-5.202,30.895-10.038,42.353-13.762c-5.202-16.013-10.038-30.897-13.762-42.357L130.02,54.638L143.785,96.991"/>
</svg>
