<?xml version="1.0" encoding="utf-8"?>
<svg version="1.2" baseProfile="tiny" xmlns="http://www.w3.org/2000/svg" xmlns:xlink="http://www.w3.org/1999/xlink" x="0px" y="0px" viewBox="0 0 256 256" xml:space="preserve">
<path fill="#FFFFFF" d="M185.266,253.871l-92.889-90.153l-54.972,41.846l-30.34-15.22L7.088,67.537L37.523,52.23l55.014,41.878l92.662-90.238l63.714,25.54l0.022,199.017L185.266,253.871"/>
<path fill="#2479BF" d="M232.791,40.319l-43.857-17.58l-95.106,92.617L35.77,71.159L23.21,77.476l-0.02,102.918l12.454,6.247l58.007-44.156l95.341,92.534l43.819-17.51L232.791,40.319L232.791,40.319z M42.02,153.082l-0.032-48.305l26.872,23.989L42.02,153.082L42.02,153.082z M127.99,128.749l53.723-40.161l0.021,80.637L127.99,128.749L127.99,128.749z"/>
</svg>
